PathFileType	4	(X/Y/Z)	C:\Users\WrightLab\Desktop\Jo\P1.2Trial9.trc
DataRate	CameraRate	NumFrames	NumMarkers	Units	OrigDataRate	OrigDataStartFrame	OrigNumFrames
100.00	100.00	       48	19	mm	100.00	471	       538
Frame#	Time	Headset_Front			Headset_Back			Headset_Left			Headset_Right			Left_Shoulder			Right_Shoulder			Sternum			C7			Left Elbow			Right Elbow			Left Wrist			Right Wrist			Left ASIS			Right ASIS			S2			Left Knee			Right Knee			Left Ankle			Right Ankle			
		X1	Y1	Z1	X2	Y2	Z2	X3	Y3	Z3	X4	Y4	Z4	X5	Y5	Z5	X6	Y6	Z6	X7	Y7	Z7	X8	Y8	Z8	X9	Y9	Z9	X10	Y10	Z10	X11	Y11	Z11	X12	Y12	Z12	X13	Y13	Z13	X14	Y14	Z14	X15	Y15	Z15	X16	Y16	Z16	X17	Y17	Z17	X18	Y18	Z18	X19	Y19	Z19	

471	4.700				-156.74461	934.45685	2242.42480													-459.00778	1227.62012	2195.64648	-217.81514	1332.53540	2212.64429	-286.42587	998.32306	2479.52344							-532.51990	863.58417	1991.83691										-550.96790	510.62405	2343.93848	-311.74860	460.75247	2036.29053							
472	4.710				-165.53902	934.18652	2252.68506													-466.38184	1227.05164	2196.78052	-225.90382	1331.69885	2219.83325	-300.83051	997.63593	2485.50073							-530.71600	859.19983	1988.79883										-561.19641	508.45065	2341.27832	-313.42859	460.09729	2038.48608							
473	4.720				-174.34962	933.86841	2262.28662													-473.94052	1226.56970	2197.96655	-234.01863	1331.48108	2229.01367	-315.55914	997.91522	2491.32764							-528.55487	855.08612	1985.32605										-570.78394	505.20233	2338.75635	-315.02237	461.02045	2037.65759							
474	4.730				-182.91777	933.09210	2272.71313													-481.53427	1226.22656	2199.40649	-242.04761	1330.70142	2236.14209										-525.99316	851.47198	1982.40540										-579.09412	503.03384	2334.56787	-315.45099	460.92923	2038.21558							
475	4.740				-191.48885	934.73608	2287.27075													-489.12805	1225.86462	2200.85010	-250.88773	1329.93848	2244.31006										-523.46045	848.47577	1977.89929										-588.69983	499.68225	2331.14478	-316.51569	460.89920	2039.59668							
476	4.750				-201.42598	934.71948	2298.02197													-496.70810	1226.15613	2202.24707	-259.67499	1330.55750	2252.78101										-520.04346	845.21368	1972.90125										-596.19226	497.03131	2325.92310	-318.69662	462.58679	2040.54041							
477	4.760				-211.05539	932.98755	2305.93872													-504.44785	1226.44275	2203.54785	-268.77332	1330.96655	2261.41992										-516.44855	841.30261	1973.69043										-604.82813	495.11124	2324.04810	-320.68124	463.75290	2042.60889							
478	4.770				-221.51477	934.03900	2315.98584													-511.91113	1227.47681	2205.13501	-278.10211	1332.03931	2269.21338										-512.27966	838.18396	1970.77502										-611.35022	494.84094	2321.94629	-322.55368	464.51193	2045.29504							
479	4.780				-231.68571	934.10669	2323.67871													-519.26025	1228.23279	2205.19434	-287.71548	1333.96399	2276.60474										-507.42560	835.11237	1967.02991										-617.46973	494.82727	2321.13770	-325.69107	465.57999	2049.89209							
480	4.790				-241.82045	935.96246	2330.47876													-526.61810	1229.40149	2206.87524	-297.31177	1335.70959	2283.53125										-501.93707	832.54449	1965.49695										-623.20520	495.13956	2321.82422	-327.70157	466.62961	2051.10278							
481	4.800				-252.19363	939.08826	2338.92896													-533.54846	1230.99402	2207.76831													-495.70609	831.08160	1961.77673										-628.44989	496.45627	2322.28052										
482	4.810				-261.14456	942.06989	2344.95923													-540.49408	1231.97034	2207.88184													-488.59448	829.48730	1957.55322										-633.76483	499.92346	2324.56787										
483	4.820				-270.04333	945.07489	2351.40356													-547.19849	1233.17310	2208.76367													-481.60989	827.93384	1957.24707										-638.52856	501.78326	2325.25562										
484	4.830				-278.82578	948.29065	2357.71729													-553.41132	1235.00061	2208.84131													-473.63629	827.81195	1954.94067										-642.95856	504.28046	2326.99463										
485	4.840				-287.15408	951.58344	2363.22192													-559.51257	1236.70178	2208.70264													-465.70181	828.44049	1953.77930										-646.94489	505.48569	2328.02002										
486	4.850				-295.52740	954.38550	2369.80200													-565.09308	1238.21338	2207.41138													-456.99982	827.13647	1955.49231										-650.97046	505.80441	2329.02808										
487	4.860				-303.04117	956.99426	2374.56934																												-448.56210	826.92279	1956.91711										-655.03094	505.69412	2329.70728										
488	4.870				-311.50626	959.32648	2380.96216																												-440.07516	827.77148	1956.72363										-657.30444	504.97104	2330.97949										
489	4.880				-319.16324	961.93646	2386.38232																												-431.56631	827.41302	1959.73462										-661.00623	504.17413	2332.62134										
490	4.890				-327.08115	963.69641	2393.02686																												-423.67139	828.95428	1960.40259										-662.92395	502.37152	2334.55469										
491	4.900				-334.98566	966.43982	2398.55273																												-415.82272	829.69250	1964.54773										-666.08801	499.84473	2334.21948										
492	4.910				-343.06250	968.19678	2404.79956																												-408.58978	829.84668	1968.41797										-667.59949	497.48157	2336.37378										
493	4.920				-351.35019	970.54303	2411.87769																												-401.70221	830.69849	1971.42041										-669.02466	494.93289	2338.51660										
494	4.930				-359.69672	972.34424	2417.83716																												-395.22888	831.34271	1977.95374										-670.81873	492.38895	2338.99561										
495	4.940																																		-389.22171	832.40088	1979.01282										-671.93738	490.42252	2341.12427										
496	4.950																																		-383.81384	833.12280	1985.60095										-672.21802	489.64383	2342.09595										
497	4.960																																		-378.53174	833.63409	1991.20923										-672.23279	488.78903	2343.59229										
498	4.970																																		-373.66367	834.83453	1994.82593										-672.48639	488.12625	2344.84595										
499	4.980																																		-368.96185	836.65619	1997.95813										-672.56268	487.51880	2345.29370										
500	4.990																																		-364.03583	837.99377	2001.39404										-672.51440	487.20715	2345.47412										
501	5.000																																		-359.23669	838.50244	2003.95898										-672.79926	486.83942	2345.52051										
502	5.010																																		-354.43356	840.37073	2009.10217										-673.04980	486.95474	2345.69287										
503	5.020																																		-349.51010	841.07336	2013.10486										-673.10669	486.96530	2345.37866										
504	5.030																																		-342.05331	842.04913	2014.58875										-673.34656	487.01956	2345.08740										
505	5.040																																		-337.71393	842.25488	2018.34094										-673.31738	487.00058	2344.71777										
506	5.050																																		-333.25824	843.16058	2022.58679										-673.41016	486.50220	2343.86694										
507	5.060																																		-328.93298	843.51141	2027.35449										-673.40900	486.19495	2343.21021										
508	5.070																																		-323.79874	843.62805	2031.24048										-673.39667	485.57547	2342.21436										
509	5.080																																		-318.45798	843.23102	2037.31860										-673.26563	485.51666	2341.41821										
510	5.090																																		-313.84247	843.81042	2041.65845										-673.38757	485.35785	2340.15479										
511	5.100																																		-307.93491	843.04565	2049.71387										-673.31769	485.76547	2338.63745										
512	5.110																																		-303.31476	843.05591	2054.61963										-673.47205	486.22336	2336.44873										
513	5.120																																		-298.55035	841.72858	2061.01660										-673.50507	486.67670	2335.25244										
514	5.130																																		-293.81500	840.93909	2068.42212										-673.48749	487.07523	2333.27344										
515	5.140																																		-289.86252	840.21045	2073.28149										-673.31995	487.41998	2331.19092										
516	5.150																																		-284.94705	838.60040	2082.88940										-673.13159	487.46799	2329.00830										
517	5.160																																		-281.35529	837.64600	2089.52246										-672.85461	487.20816	2327.17822										
518	5.170																																		-277.07697	836.23755	2097.68335										-672.36322	486.28290	2324.96411										
